<svg width="33" height="33" viewBox="0 0 33 33" fill="none" xmlns="http://www.w3.org/2000/svg">
<path fill-rule="evenodd" clip-rule="evenodd" d="M15.975 24.9487L8.06649 29.2813C7.43506 29.6095 6.65715 29.3772 6.30905 28.7565V28.7565C6.20834 28.5643 6.154 28.3511 6.15039 28.1341V8.93655C6.15039 5.27522 8.6523 3.81069 12.2526 3.81069H20.7103C24.2007 3.81069 26.8125 5.17758 26.8125 8.69246V28.1341C26.8125 28.4804 26.6749 28.8126 26.43 29.0575C26.1851 29.3024 25.8529 29.44 25.5066 29.44C25.2857 29.4365 25.0686 29.3822 24.872 29.2813L16.9147 24.9487C16.6215 24.7903 16.2682 24.7903 15.975 24.9487Z" stroke="white" stroke-width="2.7803" stroke-linecap="round" stroke-linejoin="round"/>
<path d="M11.5806 12.5368H21.3075" stroke="white" stroke-width="2.7803" stroke-linecap="round" stroke-linejoin="round"/>
</svg>
