<svg width="33" height="33" viewBox="0 0 33 33" fill="none" xmlns="http://www.w3.org/2000/svg">
<path fill-rule="evenodd" clip-rule="evenodd" d="M22.2379 4.37244H10.7059C6.6859 4.37244 4.16724 7.21777 4.16724 11.2444V22.1098C4.16724 26.1364 6.67524 28.9818 10.7059 28.9818H22.2366C26.2686 28.9818 28.7766 26.1364 28.7766 22.1098V11.2444C28.7766 7.21777 26.2686 4.37244 22.2379 4.37244Z" stroke="white" stroke-width="2.92503" stroke-linecap="round" stroke-linejoin="round"/>
<path fill-rule="evenodd" clip-rule="evenodd" d="M14.7711 12.4194C14.7711 13.7781 13.6684 14.8807 12.3097 14.8807C10.9524 14.8807 9.84973 13.7781 9.84973 12.4194C9.84973 11.0607 10.9524 9.95807 12.3097 9.95807C13.6684 9.95807 14.7711 11.0607 14.7711 12.4194Z" stroke="white" stroke-width="2.92503" stroke-linecap="round" stroke-linejoin="round"/>
<path d="M28.7755 20.6393C27.4502 19.486 26.2968 18.098 24.7768 17.182C23.2542 16.266 21.6182 16.8313 20.5622 18.198C19.5422 19.5193 18.9048 21.2966 17.3648 22.13C15.4675 23.158 14.3528 21.5006 12.7702 20.8366C11.0035 20.0966 9.66218 21.4273 8.63018 22.706C7.59685 23.986 6.55018 25.2526 5.49951 26.5193" stroke="white" stroke-width="2.92503" stroke-linecap="round" stroke-linejoin="round"/>
</svg>
